<mxfile host="Electron" agent="Mozilla/5.0 (Windows NT 10.0; Win64; x64) AppleWebKit/537.36 (KHTML, like Gecko) draw.io/24.7.5 Chrome/126.0.6478.183 Electron/31.3.0 Safari/537.36" version="24.7.5">
  <diagram name="Page-1" id="gje3ck9ZGLwPmM-R1_zE">
    <mxGraphModel dx="1430" dy="825" grid="1" gridSize="10" guides="1" tooltips="1" connect="1" arrows="1" fold="1" page="1" pageScale="1" pageWidth="850" pageHeight="1100" math="0" shadow="0">
      <root>
        <mxCell id="0" />
        <mxCell id="1" parent="0" />
        <mxCell id="iPk0j78Ftl43dM9mvCRM-4" value="" style="rounded=0;whiteSpace=wrap;html=1;fillColor=none;movable=1;resizable=1;rotatable=1;deletable=1;editable=1;locked=0;connectable=1;" vertex="1" parent="1">
          <mxGeometry x="230" y="140" width="350" height="270" as="geometry" />
        </mxCell>
        <mxCell id="iPk0j78Ftl43dM9mvCRM-1" value="Camera Feed" style="rounded=1;whiteSpace=wrap;html=1;" vertex="1" parent="1">
          <mxGeometry x="250" y="210" width="130" height="160" as="geometry" />
        </mxCell>
        <mxCell id="iPk0j78Ftl43dM9mvCRM-2" value="Drop-down month select" style="rounded=1;whiteSpace=wrap;html=1;" vertex="1" parent="1">
          <mxGeometry x="425" y="220" width="120" height="60" as="geometry" />
        </mxCell>
        <mxCell id="iPk0j78Ftl43dM9mvCRM-3" value="Current month, moving speed, current date and time" style="rounded=1;whiteSpace=wrap;html=1;" vertex="1" parent="1">
          <mxGeometry x="425" y="310" width="120" height="60" as="geometry" />
        </mxCell>
        <mxCell id="iPk0j78Ftl43dM9mvCRM-5" value="Planet Watcher" style="text;html=1;align=center;verticalAlign=middle;whiteSpace=wrap;rounded=0;" vertex="1" parent="1">
          <mxGeometry x="350" y="150" width="110" height="30" as="geometry" />
        </mxCell>
      </root>
    </mxGraphModel>
  </diagram>
</mxfile>
